<svg xmlns="http://www.w3.org/2000/svg" xmlns:xlink="http://www.w3.org/1999/xlink" version="1.1" width="1000" height="1000" viewBox="0 0 1000 1000" xml:space="preserve">
<desc>Created with Fabric.js 3.5.0</desc>
<defs>
</defs>
<rect x="0" y="0" width="100%" height="100%" fill="rgba(255,255,255,0)"/>
<g transform="matrix(3.7478 0 0 3.7478 500.003 500.0024)" id="740681">
<path style="stroke: none; stroke-width: 1; stroke-dasharray: none; stroke-linecap: butt; stroke-dashoffset: 0; stroke-linejoin: miter; stroke-miterlimit: 4; is-custom-font: none; font-file-url: none; fill: rgb(255,255,255); fill-rule: nonzero; opacity: 1;" vector-effect="non-scaling-stroke" transform=" translate(-150.0595, -150.0405)" d="M 127.9 188.2 c -2 1.4 -4.4 2.2 -6.9 2.2 H 67.8 v 8.3 h 53.2 c 4.2 0 8.3 -1.3 11.7 -3.8 l 9.2 -6.5 l -4.8 -6.7 L 127.9 188.2 z M 217 186.5 c -0.3 0.5 -0.8 1.3 -1.3 1.9 c -0.3 0.5 -0.6 1 -0.8 1.3 c -0.7 1 -1.2 1.8 -1.7 2.2 h -38.1 v 8.3 h 38.7 c 2.5 0 4.2 -1.5 5.2 -2.4 c 1 -1 2 -2.3 2.7 -3.4 c 0.4 -0.6 0.8 -1.1 1 -1.6 c 0.3 -0.5 0.6 -1 1 -1.5 c 0.3 -0.4 0.6 -0.8 0.8 -1 c 0.2 -0.2 0.3 -0.3 0.3 -0.3 l -4.1 -3.3 C 219.8 185.7 217.6 185.5 217 186.5 z M 167.7 137.9 l 0.1 0.1 C 167.7 138 167.7 138 167.7 137.9 z M 61.1 141.9 h 29.5 v -8.3 H 61.1 V 141.9 z M 271.2 126.5 c -0.8 -7.7 -5 -14.6 -11.4 -19 c 3.3 -9.9 0.4 -20.7 -7.3 -27.7 c -7.7 -7 -18.8 -9 -28.5 -5 c -2.6 -10.6 -11.6 -18.6 -22.6 -20 s -21.7 4 -27 13.6 c -9.5 -3.5 -20.2 -1.4 -27.6 5.4 c -0.3 0.2 -0.5 0.5 -0.8 0.7 c 11.8 7.6 19.1 17.6 23.6 26.2 c 8.6 -5.2 18.3 -7.6 27.4 -7.6 c 12.1 0 25.4 4.3 35.6 13.8 c 9 8.3 15.8 20.8 17.2 38.4 h -80.5 c -0.2 -2.5 -0.5 -5 -0.9 -7.5 l -0.7 0.3 l 0 0 l 0 0 l -0.1 0 l -0.1 0.1 c -0.1 0 -0.2 0.1 -0.4 0.2 c -0.3 0.1 -0.7 0.3 -1.2 0.5 c -1 0.4 -2.3 0.9 -3.9 1.4 c -2.3 0.8 -5.4 1.6 -8.9 2.3 c 0.3 2.1 0.4 4.3 0.5 6.5 h -105 c 0.2 -19.3 10.8 -36.1 26.5 -45.1 c 4.6 -2.6 9.6 -4.6 14.9 -5.8 c 4.3 8.3 11.7 18 24.4 24.3 c 24 11.8 46.6 1.1 46.6 1.1 s -3.7 -26.1 -28.2 -38.5 c -6.6 -3.3 -13.1 -5.1 -19.1 -5.9 l 3.5 -10.8 c 0 0 -48.5 -14.9 -74.5 23.4 c -10.3 15.3 -19.3 48.4 -10.1 81.4 v 28.8 c 0 8.3 4.2 14.7 8.4 19.1 c 4.3 4.4 9.8 8.1 15.8 11.3 c 12.5 6.6 29.5 11.9 42.6 13 l 0.7 0.1 h 1.9 l 0.7 -0.1 c 13.1 -1.1 30.2 -6.4 42.6 -13 l 0 0 c 6 -3.2 11.5 -6.8 15.8 -11.2 c 0.3 -0.3 0.5 -0.6 0.8 -0.9 c 10 8 22.2 12.8 35.1 12.8 c 33 0 61.1 -31.4 61.1 -67.1 v -13.8 C 267 147 272.3 137 271.2 126.5 z M 153.5 202.1 c 0 5.3 -5.3 10.7 -15.7 16.3 c -10.8 5.7 -25.8 10.3 -36.5 11.2 h -0.6 c -10.6 -0.9 -25.6 -5.5 -36.5 -11.2 c -10.4 -5.5 -15.7 -11 -15.7 -16.3 v -43.8 c 3 8 10.3 18.3 27.4 18.3 c 13.8 0 21.2 -6.6 25.1 -13.4 c 3.9 6.7 11.3 13.4 25.1 13.4 c 17.1 0 24.4 -10.2 27.4 -18.2 V 202.1 z M 250.6 166 c 0 32.1 -25.2 59.1 -53.1 59.1 c -11.1 0 -21.7 -4.2 -30.5 -11.4 c 1.8 -3.4 3 -7.3 3 -11.7 v -25.6 c 15.4 -0.1 23.4 -8.1 27.5 -16 c 4.2 7.9 12.2 16 27.7 16 c 13.1 0 20.8 -5.8 25.4 -12.3 V 166 z" stroke-linecap="round"/>
</g>
</svg>